name analog
datacolumns 19
datarows 57
range 0.1565 0.1845
endheader
time	ground_force_vx	ground_force_vy	ground_force_vz	ground_force_px	ground_force_py	ground_force_pz	l_ground_force_vx	l_ground_force_vy	l_ground_force_vz	l_ground_force_px	l_ground_force_py	l_ground_force_pz	ground_torque_x	ground_torque_y	ground_torque_z	l_ground_torque_x	l_ground_torque_y	l_ground_torque_z
0.1565	-0.0	-0.0	-0.0	-0.0	-0.0	-0.0	-5.818312168121338	-5.247418403625488	-876.9248046875	-0.0	-0.0	-0.0	-0.0	-0.0	-0.0	242940.546875	-2176.103515625	-2467.5859375
0.157	-0.0	-0.0	-0.0	-0.0	-0.0	-0.0	-5.828973293304443	-4.691897392272949	-877.2219848632812	-0.0	-0.0	-0.0	-0.0	-0.0	-0.0	242882.90625	-2276.029541015625	-2535.454345703125
0.1575	-0.0	-0.0	-0.0	-0.0	-0.0	-0.0	-5.753306865692139	-4.112606048583984	-875.9706420898438	-0.0	-0.0	-0.0	-0.0	-0.0	-0.0	242822.453125	-2073.49267578125	-2666.2763671875
0.158	-0.0	-0.0	-0.0	-0.0	-0.0	-0.0	-5.437062740325928	-3.343428134918213	-876.4212036132812	-0.0	-0.0	-0.0	-0.0	-0.0	-0.0	243062.453125	-2064.3193359375	-2725.21240234375
0.1585	-0.0	-0.0	-0.0	-0.0	-0.0	-0.0	-5.563215255737305	-2.258946657180786	-876.0213623046875	-0.0	-0.0	-0.0	-0.0	-0.0	-0.0	242814.375	-2196.0771484375	-2661.471435546875
0.159	-0.0	-0.0	-0.0	-0.0	-0.0	-0.0	-5.043779373168945	-1.2867861986160278	-875.7223510742188	-0.0	-0.0	-0.0	-0.0	-0.0	-0.0	242958.265625	-2125.89990234375	-2529.6162109375
0.1595	-0.0	-0.0	-0.0	-0.0	-0.0	-0.0	-4.676318168640137	-0.1766433715820312	-875.4229125976562	-0.0	-0.0	-0.0	-0.0	-0.0	-0.0	242887.03125	-2811.8642578125	-2410.396728515625
0.16	-0.0	-0.0	-0.0	-0.0	-0.0	-0.0	-4.270221710205078	0.5173835754394531	-874.0256958007812	-0.0	-0.0	-0.0	-0.0	-0.0	-0.0	243064.609375	-2798.1259765625	-2409.906982421875
0.1605	-0.0	-0.0	-0.0	-0.0	-0.0	-0.0	-3.979425668716431	1.5647813081741333	-874.624755859375	-0.0	-0.0	-0.0	-0.0	-0.0	-0.0	243261.875	-2923.49462890625	-2367.15625
0.161	-0.0	-0.0	-0.0	-0.0	-0.0	-0.0	-3.775856256484986	2.2839179039001465	-873.125	-0.0	-0.0	-0.0	-0.0	-0.0	-0.0	243342.96875	-2662.937744140625	-2286.236328125
0.1615	-0.0	-0.0	-0.0	-0.0	-0.0	-0.0	-3.699271440505981	3.824297428131104	-873.8776245117188	-0.0	-0.0	-0.0	-0.0	-0.0	-0.0	243192.078125	-3041.272705078125	-2294.67919921875
0.162	-0.0	-0.0	-0.0	-0.0	-0.0	-0.0	-3.422569513320923	4.705708026885986	-875.1201782226562	-0.0	-0.0	-0.0	-0.0	-0.0	-0.0	243701.40625	-2967.56689453125	-2014.25244140625
0.1625	-0.0	-0.0	-0.0	-0.0	-0.0	-0.0	-2.774656295776367	5.475944519042969	-873.4120483398438	-0.0	-0.0	-0.0	-0.0	-0.0	-0.0	243855.640625	-2723.84716796875	-2043.28466796875
0.163	-0.0	-0.0	-0.0	-0.0	-0.0	-0.0	-2.8784549236297607	6.097142696380615	-875.97314453125	-0.0	-0.0	-0.0	-0.0	-0.0	-0.0	244435.515625	-2829.21435546875	-1878.5152587890625
0.1635	-0.0	-0.0	-0.0	-0.0	-0.0	-0.0	-2.370774984359741	5.993720054626465	-875.2750854492188	-0.0	-0.0	-0.0	-0.0	-0.0	-0.0	244290.46875	-2576.69091796875	-2026.571044921875
0.164	-0.0	-0.0	-0.0	-0.0	-0.0	-0.0	-2.9759883880615234	4.893932342529297	-876.1168823242188	-0.0	-0.0	-0.0	-0.0	-0.0	-0.0	243905.0	-2202.786376953125	-2069.24169921875
0.1645	-0.0	-0.0	-0.0	-0.0	-0.0	-0.0	-4.298530578613281	3.6332106590271	-874.6723022460938	-0.0	-0.0	-0.0	-0.0	-0.0	-0.0	243391.234375	-1953.79052734375	-2218.862060546875
0.165	-0.0	-0.0	-0.0	-0.0	-0.0	-0.0	-5.073029041290283	2.878675699234009	-873.879150390625	-0.0	-0.0	-0.0	-0.0	-0.0	-0.0	243096.609375	-1835.28076171875	-2202.039306640625
0.1655	-0.0	-0.0	-0.0	-0.0	-0.0	-0.0	-4.879093170166016	1.4657526016235352	-870.179931640625	-0.0	-0.0	-0.0	-0.0	-0.0	-0.0	242178.390625	-1701.1138916015625	-2233.573486328125
0.166	-0.0	-0.0	-0.0	-0.0	-0.0	-0.0	-5.092263698577881	0.5233390927314758	-869.2468872070312	-0.0	-0.0	-0.0	-0.0	-0.0	-0.0	241287.8125	-1805.9588623046875	-2121.589599609375
0.1665	-0.0	-0.0	-0.0	-0.0	-0.0	-0.0	-5.0033345222473145	-0.541721761226654	-867.7349853515625	-0.0	-0.0	-0.0	-0.0	-0.0	-0.0	241323.5	-1646.248779296875	-2028.7713623046875
0.167	-0.0	-0.0	-0.0	-0.0	-0.0	-0.0	-4.82573127746582	-1.5780589580535889	-866.38427734375	-0.0	-0.0	-0.0	-0.0	-0.0	-0.0	240196.125	-1625.157958984375	-1987.383544921875
0.1675	-0.0	-0.0	-0.0	-0.0	-0.0	-0.0	-4.708193302154541	-1.57160747051239	-866.4557495117188	-0.0	-0.0	-0.0	-0.0	-0.0	-0.0	239843.453125	-1560.44091796875	-2016.97607421875
0.168	-0.0	-0.0	-0.0	-0.0	-0.0	-0.0	-4.60129451751709	-2.0964901447296143	-864.6371459960938	-0.0	-0.0	-0.0	-0.0	-0.0	-0.0	239752.921875	-1577.8931884765625	-1880.441650390625
0.1685	-0.0	-0.0	-0.0	-0.0	-0.0	-0.0	-4.832595348358154	-3.0029373168945312	-865.031494140625	-0.0	-0.0	-0.0	-0.0	-0.0	-0.0	239705.984375	-1663.8909912109375	-1898.8111572265625
0.169	-0.0	-0.0	-0.0	-0.0	-0.0	-0.0	-4.755684852600098	-3.1142892837524414	-864.2413330078125	-0.0	-0.0	-0.0	-0.0	-0.0	-0.0	240015.8125	-2152.821044921875	-2132.2490234375
0.1695	-0.0	-0.0	-0.0	-0.0	-0.0	-0.0	-4.8905839920043945	-3.056937456130981	-866.8982543945312	-0.0	-0.0	-0.0	-0.0	-0.0	-0.0	240212.671875	-2448.2587890625	-1988.9783935546875
0.17	-0.0	-0.0	-0.0	-0.0	-0.0	-0.0	-4.292466163635254	-2.4844064712524414	-866.639404296875	-0.0	-0.0	-0.0	-0.0	-0.0	-0.0	240504.609375	-2475.478515625	-2150.015869140625
0.1705	-0.0	-0.0	-0.0	-0.0	-0.0	-0.0	-4.25811767578125	-2.14237380027771	-869.038330078125	-0.0	-0.0	-0.0	-0.0	-0.0	-0.0	241071.109375	-2878.570068359375	-2112.75390625
0.171	-0.0	-0.0	-0.0	-0.0	-0.0	-0.0	-4.445039749145508	-1.0485941171646118	-869.35009765625	-0.0	-0.0	-0.0	-0.0	-0.0	-0.0	241754.0625	-2794.983154296875	-2091.26220703125
0.1715	-0.0	-0.0	-0.0	-0.0	-0.0	-0.0	-3.9468894004821777	-0.4640575051307678	-872.0032958984375	-0.0	-0.0	-0.0	-0.0	-0.0	-0.0	242326.21875	-3239.616455078125	-1979.60107421875
0.17200000000000001	-0.0	-0.0	-0.0	-0.0	-0.0	-0.0	-3.348611831665039	0.6628513932228088	-873.2281494140625	-0.0	-0.0	-0.0	-0.0	-0.0	-0.0	243007.703125	-3039.726318359375	-1878.537353515625
0.17250000000000001	-0.0	-0.0	-0.0	-0.0	-0.0	-0.0	-2.6390092372894287	1.854755401611328	-873.2720947265625	-0.0	-0.0	-0.0	-0.0	-0.0	-0.0	243280.171875	-3341.6435546875	-1721.9200439453125
0.17300000000000001	-0.0	-0.0	-0.0	-0.0	-0.0	-0.0	-1.530280351638794	3.212653398513794	-871.4390869140625	-0.0	-0.0	-0.0	-0.0	-0.0	-0.0	243542.0	-3411.7783203125	-1579.8887939453125
0.17350000000000002	-0.0	-0.0	-0.0	-0.0	-0.0	-0.0	-1.5637235641479492	3.555338144302368	-871.8749389648438	-0.0	-0.0	-0.0	-0.0	-0.0	-0.0	243597.859375	-3726.40673828125	-1557.6585693359375
0.17400000000000002	-0.0	-0.0	-0.0	-0.0	-0.0	-0.0	-1.0315853357315063	3.864287853240967	-871.2230834960938	-0.0	-0.0	-0.0	-0.0	-0.0	-0.0	243662.78125	-3224.142822265625	-1338.305908203125
0.17450000000000002	-0.0	-0.0	-0.0	-0.0	-0.0	-0.0	-1.1423317193984983	4.161979675292969	-868.1627197265625	-0.0	-0.0	-0.0	-0.0	-0.0	-0.0	243248.15625	-2940.08740234375	-1334.6370849609375
0.17500000000000002	-0.0	-0.0	-0.0	-0.0	-0.0	-0.0	-1.719975233078003	4.801772594451904	-867.6417236328125	-0.0	-0.0	-0.0	-0.0	-0.0	-0.0	243080.453125	-3190.543212890625	-1356.650390625
0.17550000000000002	-0.0	-0.0	-0.0	-0.0	-0.0	-0.0	-2.150672197341919	5.010570049285889	-866.2876586914062	-0.0	-0.0	-0.0	-0.0	-0.0	-0.0	242894.109375	-3040.186279296875	-1494.2998046875
0.176	-0.0	-0.0	-0.0	-0.0	-0.0	-0.0	-2.3172121047973637	5.430361270904541	-867.4305419921875	-0.0	-0.0	-0.0	-0.0	-0.0	-0.0	242325.390625	-2939.7978515625	-1520.3118896484375
0.1765	-0.0	-0.0	-0.0	-0.0	-0.0	-0.0	-2.8034024238586426	5.497198104858398	-862.5725708007812	-0.0	-0.0	-0.0	-0.0	-0.0	-0.0	242394.390625	-2918.88330078125	-1473.0919189453125
0.177	-0.0	-0.0	-0.0	-0.0	-0.0	-0.0	-3.4171905517578125	5.507702350616455	-862.4882202148438	-0.0	-0.0	-0.0	-0.0	-0.0	-0.0	242237.953125	-2762.151123046875	-1491.3441162109375
0.1775	-0.0	-0.0	-0.0	-0.0	-0.0	-0.0	-3.235818386077881	5.621054172515869	-861.9306640625	-0.0	-0.0	-0.0	-0.0	-0.0	-0.0	242212.578125	-2563.900634765625	-1264.4149169921875
0.178	-0.0	-0.0	-0.0	-0.0	-0.0	-0.0	-3.814563751220703	5.496851444244385	-859.4273681640625	-0.0	-0.0	-0.0	-0.0	-0.0	-0.0	242333.96875	-2552.212646484375	-1339.7093505859375
0.1785	-0.0	-0.0	-0.0	-0.0	-0.0	-0.0	-4.701671600341797	5.72540283203125	-860.2067260742188	-0.0	-0.0	-0.0	-0.0	-0.0	-0.0	242512.109375	-2272.550537109375	-1472.8636474609375
0.179	-0.0	-0.0	-0.0	-0.0	-0.0	-0.0	-5.719028472900391	5.377283573150635	-860.1239624023438	-0.0	-0.0	-0.0	-0.0	-0.0	-0.0	242686.53125	-2082.432373046875	-1566.066650390625
0.1795	-0.0	-0.0	-0.0	-0.0	-0.0	-0.0	-6.486213684082031	5.28902006149292	-860.1876220703125	-0.0	-0.0	-0.0	-0.0	-0.0	-0.0	242772.703125	-1988.140869140625	-1921.0731201171875
0.18	-0.0	-0.0	-0.0	-0.0	-0.0	-0.0	-7.206076145172119	5.27888822555542	-860.92724609375	-0.0	-0.0	-0.0	-0.0	-0.0	-0.0	243220.375	-1685.5457763671875	-2218.30322265625
0.1805	-0.0	-0.0	-0.0	-0.0	-0.0	-0.0	-7.4517059326171875	5.67292070388794	-862.1356811523438	-0.0	-0.0	-0.0	-0.0	-0.0	-0.0	243646.28125	-1551.114501953125	-2284.5751953125
0.181	-0.0	-0.0	-0.0	-0.0	-0.0	-0.0	-7.52007532119751	5.849483489990234	-862.444580078125	-0.0	-0.0	-0.0	-0.0	-0.0	-0.0	243981.953125	-1689.2373046875	-2304.998291015625
0.1815	-0.0	-0.0	-0.0	-0.0	-0.0	-0.0	-6.969919681549072	6.692345142364502	-863.4121704101562	-0.0	-0.0	-0.0	-0.0	-0.0	-0.0	244845.0625	-1768.4420166015625	-2350.09228515625
0.182	-0.0	-0.0	-0.0	-0.0	-0.0	-0.0	-7.018189430236816	6.802389621734619	-864.268798828125	-0.0	-0.0	-0.0	-0.0	-0.0	-0.0	245309.125	-1667.86572265625	-2386.4560546875
0.1825	-0.0	-0.0	-0.0	-0.0	-0.0	-0.0	-6.505786418914795	7.98864221572876	-867.6024780273438	-0.0	-0.0	-0.0	-0.0	-0.0	-0.0	246463.046875	-1845.97265625	-2451.71240234375
0.183	-0.0	-0.0	-0.0	-0.0	-0.0	-0.0	-6.407020092010498	8.900733947753906	-869.8928833007812	-0.0	-0.0	-0.0	-0.0	-0.0	-0.0	247163.09375	-2233.650390625	-2691.77001953125
0.1835	-0.0	-0.0	-0.0	-0.0	-0.0	-0.0	-5.933741569519043	9.430745124816896	-872.4530029296875	-0.0	-0.0	-0.0	-0.0	-0.0	-0.0	248279.5625	-2459.31494140625	-2368.412841796875
0.184	-0.0	-0.0	-0.0	-0.0	-0.0	-0.0	-5.2437424659729	10.245315551757812	-874.0037231445312	-0.0	-0.0	-0.0	-0.0	-0.0	-0.0	249313.9375	-2595.087158203125	-2525.849609375
0.1845	-0.0	-0.0	-0.0	-0.0	-0.0	-0.0	-5.106234550476074	10.460779190063477	-878.0396118164062	-0.0	-0.0	-0.0	-0.0	-0.0	-0.0	250324.3125	-3097.0712890625	-2314.76953125
